<svg width="40" height="40" viewBox="0 0 40 40" fill="none" xmlns="http://www.w3.org/2000/svg">
<circle cx="20" cy="20" r="19.5" fill="white" stroke="#767272"/>
<g clip-path="url(#clip0_8696_9)">
<path d="M29.8843 14.1786C29.7698 14.0145 29.5856 13.9131 29.3855 13.9045L16.9793 13.3698C16.6234 13.3542 16.3259 13.629 16.3107 13.9833C16.2956 14.3375 16.5699 14.6367 16.9242 14.6519L28.4905 15.1505L26.2163 22.2461H16.096L14.2676 12.2907C14.2274 12.0725 14.0776 11.8904 13.871 11.8094L10.8764 10.6329C10.5463 10.5037 10.1739 10.6658 10.0443 10.9955C9.9149 11.3253 10.077 11.6979 10.4068 11.8276L13.0695 12.8736L14.9302 23.0038C14.9862 23.3083 15.2516 23.5295 15.5614 23.5295H15.8701L15.1653 25.4872C15.1063 25.6512 15.1306 25.8333 15.231 25.9757C15.3312 26.1183 15.4943 26.203 15.6683 26.203H16.1627C15.8564 26.5439 15.6683 26.9928 15.6683 27.4864C15.6683 28.548 16.5321 29.4116 17.5934 29.4116C18.6548 29.4116 19.5186 28.548 19.5186 27.4864C19.5186 26.9929 19.3305 26.5439 19.0243 26.203H23.2215C22.915 26.5439 22.727 26.9928 22.727 27.4864C22.727 28.548 23.5906 29.4116 24.6521 29.4116C25.7137 29.4116 26.5773 28.548 26.5773 27.4864C26.5773 26.9929 26.3893 26.5439 26.083 26.203H26.6842C26.9796 26.203 27.219 25.9636 27.219 25.6683C27.219 25.3729 26.9796 25.1335 26.6842 25.1335H16.4292L17.0067 23.5293H26.6842C26.9632 23.5293 27.2102 23.349 27.2952 23.0835L29.9689 14.7413C30.0303 14.5509 29.9988 14.3428 29.8843 14.1786ZM17.5935 28.3423C17.1216 28.3423 16.7379 27.9585 16.7379 27.4867C16.7379 27.0148 17.1216 26.631 17.5935 26.631C18.0654 26.631 18.4491 27.0148 18.4491 27.4867C18.4491 27.9585 18.0654 28.3423 17.5935 28.3423ZM24.6521 28.3423C24.1803 28.3423 23.7966 27.9585 23.7966 27.4867C23.7966 27.0148 24.1803 26.631 24.6521 26.631C25.124 26.631 25.5077 27.0148 25.5077 27.4867C25.5077 27.9585 25.124 28.3423 24.6521 28.3423Z" fill="#767272"/>
</g>
<defs>
<clipPath id="clip0_8696_9">
<rect width="20" height="20" fill="white" transform="translate(10 10)"/>
</clipPath>
</defs>
</svg>
